<?xml version="1.0" standalone="no"?>
<!DOCTYPE svg PUBLIC "-//W3C//DTD SVG 20000303 Stylable//EN"
	"http://www.w3.org/TR/2000/03/WD-SVG-20000303/DTD/svg-20000303-stylable.dtd">
<svg width="50pt" height="50pt" viewBox="0 0 50 50" xml:space="preserve">
<g transform="scale(0.5)">
	<g id="Path_0" style="fill-rule:nonzero;clip-rule:nonzero;fill:#C0C0C0;stroke:none;stroke-miterlimit:4;">
		<path d="M47.82 29.53L2.89 53.69L20.58 65.42L78.83 38.67z"/>
	</g>
	<g id="Path_0" style="fill-rule:nonzero;clip-rule:nonzero;fill:#C0C0C0;stroke:none;stroke-miterlimit:4;">
		<path d="M64.25 56.78L13.64 83.99L33.57 97.2L99.18 67.07z"/>
	</g>
	<g id="Path_1" style="fill-rule:none;clip-rule:nonzero;fill:#FFFFFF;stroke:#000000;stroke-miterlimit:4;">
		<path d="M98.25 44.84L73.75 55.73L73.75 73.43L98.25 61.17z"/>
	</g>
	<g id="Path_2" style="fill-rule:none;clip-rule:nonzero;fill:#a8a8a8;stroke:#000000;stroke-miterlimit:4;">
		<path d="M54.69 62.54L54.69 47.56L73.75 55.73L73.75 73.43z"/>
	</g>
	<g id="Path_3" style="fill-rule:none;clip-rule:nonzero;fill:#FFFFFF;stroke:#000000;stroke-miterlimit:4;">
		<path d="M76.47 39.39L54.69 47.56L73.75 55.73L98.25 44.84z"/>
	</g>
	<g id="Path_4" style="fill-rule:none;clip-rule:nonzero;fill:none;stroke:#000000;stroke-miterlimit:4;">
		<path d="M91.23 64.57L91.24 47.93"/>
	</g>
	<g id="Path_5" style="fill-rule:none;clip-rule:nonzero;fill:none;stroke:#000000;stroke-miterlimit:4;">
		<path d="M76.47 41.35L91.41 45.54L73.75 53.01L60.14 47.56z"/>
	</g>
	<g id="Path_6" style="fill-rule:none;clip-rule:nonzero;fill:#a8a8a8;stroke:#000000;stroke-miterlimit:4;">
		<path d="M86.59 47.58L91.41 45.54L76.47 41.35z"/>
	</g>
	<g id="Path_7" style="fill-rule:none;clip-rule:nonzero;fill:#00fc00;stroke:#505450;stroke-miterlimit:4;">
		<path d="M92.04 48.87L97.60 46.47L97.64 50.59L92.04 53.12z"/>
	</g>
	<g id="Path_8" style="fill-rule:none;clip-rule:nonzero;fill:none;stroke:#000000;stroke-miterlimit:4;">
		<path d="M73.75 67.71L91.24 59.1"/>
	</g>
	<g id="Path_9" style="fill-rule:none;clip-rule:nonzero;fill:none;stroke:#000000;stroke-miterlimit:4;">
		<path d="M54.69 55.73L70.70 64.11L70.70 54.42L94.87 43.99"/>
	</g>
	<g id="Path_1" style="fill-rule:none;clip-rule:nonzero;fill:#FFFFFF;stroke:#000000;stroke-miterlimit:4;">
		<path d="M80.57 19.2L58.82 28.87L58.82 44.58L80.57 33.7z"/>
	</g>
	<g id="Path_2" style="fill-rule:none;clip-rule:nonzero;fill:#a8a8a8;stroke:#000000;stroke-miterlimit:4;">
		<path d="M41.90 34.91L41.90 21.62L58.82 28.87L58.82 44.58z"/>
	</g>
	<g id="Path_3" style="fill-rule:none;clip-rule:nonzero;fill:#FFFFFF;stroke:#000000;stroke-miterlimit:4;">
		<path d="M61.24 14.36L41.90 21.62L58.82 28.87L80.57 19.2z"/>
	</g>
	<g id="Path_4" style="fill-rule:none;clip-rule:nonzero;fill:none;stroke:#000000;stroke-miterlimit:4;">
		<path d="M74.34 36.72L74.35 21.94"/>
	</g>
	<g id="Path_5" style="fill-rule:none;clip-rule:nonzero;fill:none;stroke:#000000;stroke-miterlimit:4;">
		<path d="M61.24 16.1L74.50 19.82L58.82 26.45L46.73 21.62z"/>
	</g>
	<g id="Path_6" style="fill-rule:none;clip-rule:nonzero;fill:#a8a8a8;stroke:#000000;stroke-miterlimit:4;">
		<path d="M70.22 21.63L74.50 19.82L61.24 16.1z"/>
	</g>
	<g id="Path_7" style="fill-rule:none;clip-rule:nonzero;fill:#00fc00;stroke:#505450;stroke-miterlimit:4;">
		<path d="M75.06 22.78L79.99 20.65L80.03 24.3L75.06 26.55z"/>
	</g>
	<g id="Path_8" style="fill-rule:none;clip-rule:nonzero;fill:none;stroke:#000000;stroke-miterlimit:4;">
		<path d="M58.82 39.5L74.35 31.86"/>
	</g>
	<g id="Path_9" style="fill-rule:none;clip-rule:nonzero;fill:none;stroke:#000000;stroke-miterlimit:4;">
		<path d="M41.90 28.87L56.11 36.31L56.11 27.71L77.57 18.45"/>
	</g>
	<g id="Path_1" style="fill-rule:none;clip-rule:nonzero;fill:#FFFFFF;stroke:#000000;stroke-miterlimit:4;">
		<path d="M40.62 33.15L18.87 42.82L18.87 58.53L40.62 47.65z"/>
	</g>
	<g id="Path_2" style="fill-rule:none;clip-rule:nonzero;fill:#a8a8a8;stroke:#000000;stroke-miterlimit:4;">
		<path d="M1.95 48.86L1.95 35.57L18.87 42.82L18.87 58.53z"/>
	</g>
	<g id="Path_3" style="fill-rule:none;clip-rule:nonzero;fill:#FFFFFF;stroke:#000000;stroke-miterlimit:4;">
		<path d="M21.29 28.32L1.95 35.57L18.87 42.82L40.62 33.15z"/>
	</g>
	<g id="Path_4" style="fill-rule:none;clip-rule:nonzero;fill:none;stroke:#000000;stroke-miterlimit:4;">
		<path d="M34.39 50.67L34.40 35.9"/>
	</g>
	<g id="Path_5" style="fill-rule:none;clip-rule:nonzero;fill:none;stroke:#000000;stroke-miterlimit:4;">
		<path d="M21.29 30.06L34.55 33.77L18.87 40.4L6.78 35.57z"/>
	</g>
	<g id="Path_6" style="fill-rule:none;clip-rule:nonzero;fill:#a8a8a8;stroke:#000000;stroke-miterlimit:4;">
		<path d="M30.27 35.58L34.55 33.77L21.29 30.06z"/>
	</g>
	<g id="Path_7" style="fill-rule:none;clip-rule:nonzero;fill:#00fc00;stroke:#505450;stroke-miterlimit:4;">
		<path d="M35.11 36.73L40.04 34.6L40.08 38.26L35.11 40.5z"/>
	</g>
	<g id="Path_8" style="fill-rule:none;clip-rule:nonzero;fill:none;stroke:#000000;stroke-miterlimit:4;">
		<path d="M18.87 53.45L34.40 45.82"/>
	</g>
	<g id="Path_9" style="fill-rule:none;clip-rule:nonzero;fill:none;stroke:#000000;stroke-miterlimit:4;">
		<path d="M1.95 42.82L16.16 50.26L16.16 41.66L37.62 32.4"/>
	</g>
	<g id="Path_1" style="fill-rule:none;clip-rule:nonzero;fill:#FFFFFF;stroke:#000000;stroke-miterlimit:4;">
		<path d="M57.29 60.43L32.79 71.32L32.79 89.02L57.29 76.77z"/>
	</g>
	<g id="Path_2" style="fill-rule:none;clip-rule:nonzero;fill:#a8a8a8;stroke:#000000;stroke-miterlimit:4;">
		<path d="M13.73 78.13L13.73 63.16L32.79 71.32L32.79 89.02z"/>
	</g>
	<g id="Path_3" style="fill-rule:none;clip-rule:nonzero;fill:#FFFFFF;stroke:#000000;stroke-miterlimit:4;">
		<path d="M35.51 54.99L13.73 63.16L32.79 71.32L57.29 60.43z"/>
	</g>
	<g id="Path_4" style="fill-rule:none;clip-rule:nonzero;fill:none;stroke:#000000;stroke-miterlimit:4;">
		<path d="M50.27 80.17L50.28 63.53"/>
	</g>
	<g id="Path_5" style="fill-rule:none;clip-rule:nonzero;fill:none;stroke:#000000;stroke-miterlimit:4;">
		<path d="M35.51 56.95L50.45 61.13L32.79 68.6L19.18 63.16z"/>
	</g>
	<g id="Path_6" style="fill-rule:none;clip-rule:nonzero;fill:#a8a8a8;stroke:#000000;stroke-miterlimit:4;">
		<path d="M45.63 63.17L50.45 61.13L35.51 56.95z"/>
	</g>
	<g id="Path_7" style="fill-rule:none;clip-rule:nonzero;fill:#00fc00;stroke:#505450;stroke-miterlimit:4;">
		<path d="M51.09 64.46L56.64 62.07L56.68 66.18L51.09 68.71z"/>
	</g>
	<g id="Path_8" style="fill-rule:none;clip-rule:nonzero;fill:none;stroke:#000000;stroke-miterlimit:4;">
		<path d="M32.79 83.3L50.28 74.7"/>
	</g>
	<g id="Path_9" style="fill-rule:none;clip-rule:nonzero;fill:none;stroke:#000000;stroke-miterlimit:4;">
		<path d="M13.73 71.32L29.74 79.71L29.74 70.02L53.91 59.59"/>
	</g>
</g>
</svg>