<?xml version="1.0" standalone="no"?>
<!DOCTYPE svg PUBLIC "-//W3C//DTD SVG 20000303 Stylable//EN"
	"http://www.w3.org/TR/2000/03/WD-SVG-20000303/DTD/svg-20000303-stylable.dtd">
<svg width="50pt" height="50pt" viewBox="0 0 50 50" xml:space="preserve">
<g transform="scale(0.5)">
	<g id="Path_0" style="fill-rule:nonzero;clip-rule:nonzero;fill:#C0C0C0;stroke:none;stroke-miterlimit:4;">
		<path d="M50.00 54L10.00 77.5L45.00 97.5L90.00 75z"/>
	</g>
	<g id="Path_1" style="fill-rule:none;clip-rule:nonzero;fill:#FFFFFF;stroke:#000000;stroke-miterlimit:4;">
		<path d="M90.00 35L45.00 55L45.00 87.5L90.00 65z"/>
	</g>
	<g id="Path_2" style="fill-rule:none;clip-rule:nonzero;fill:#a8a8a8;stroke:#000000;stroke-miterlimit:4;">
		<path d="M10.00 67.5L10.00 40L45.00 55L45.00 87.5z"/>
	</g>
	<g id="Path_3" style="fill-rule:none;clip-rule:nonzero;fill:#FFFFFF;stroke:#000000;stroke-miterlimit:4;">
		<path d="M50.00 25L10.00 40L45.00 55L90.00 35z"/>
	</g>
	<g id="Path_4" style="fill-rule:none;clip-rule:nonzero;fill:none;stroke:#000000;stroke-miterlimit:4;">
		<path d="M77.11 71.24L77.13 40.68"/>
	</g>
	<g id="Path_5" style="fill-rule:none;clip-rule:nonzero;fill:none;stroke:#000000;stroke-miterlimit:4;">
		<path d="M50.00 28.6L77.44 36.28L45.00 50L20.00 40z"/>
	</g>
	<g id="Path_6" style="fill-rule:none;clip-rule:nonzero;fill:#a8a8a8;stroke:#000000;stroke-miterlimit:4;">
		<path d="M68.58 40.03L77.44 36.28L50.00 28.6z"/>
	</g>
	<g id="Path_7" style="fill-rule:none;clip-rule:nonzero;fill:#00fc00;stroke:#505450;stroke-miterlimit:4;">
		<path d="M78.60 42.4L88.80 38L88.88 45.56L78.60 50.2z"/>
	</g>
	<g id="Path_8" style="fill-rule:none;clip-rule:nonzero;fill:none;stroke:#000000;stroke-miterlimit:4;">
		<path d="M45.00 77L77.12 61.2"/>
	</g>
	<g id="Path_9" style="fill-rule:none;clip-rule:nonzero;fill:none;stroke:#000000;stroke-miterlimit:4;">
		<path d="M10.00 55L39.40 70.4L39.40 52.6L83.79 33.45"/>
	</g>
</g>
</svg>