<?xml version="1.0" encoding="UTF-8" standalone="no"?>
<!-- Created with Inkscape (http://www.inkscape.org/) -->
<svg
   xmlns:dc="http://purl.org/dc/elements/1.1/"
   xmlns:cc="http://web.resource.org/cc/"
   xmlns:rdf="http://www.w3.org/1999/02/22-rdf-syntax-ns#"
   xmlns:svg="http://www.w3.org/2000/svg"
   xmlns="http://www.w3.org/2000/svg"
   xmlns:xlink="http://www.w3.org/1999/xlink"
   xmlns:sodipodi="http://sodipodi.sourceforge.net/DTD/sodipodi-0.dtd"
   xmlns:inkscape="http://www.inkscape.org/namespaces/inkscape"
   width="100"
   height="100"
   id="svg2"
   sodipodi:version="0.32"
   inkscape:version="0.45.1"
   version="1.0"
   sodipodi:docbase="/home/mike/c/cups-trunk/doc/images"
   sodipodi:docname="cups-icon.svg"
   inkscape:output_extension="org.inkscape.output.svg.inkscape"
   inkscape:export-filename="/home/mike/c/cups-trunk/desktop/cups-512.png"
   inkscape:export-xdpi="460.79999"
   inkscape:export-ydpi="460.79999">
  <defs
     id="defs4">
    <linearGradient
       inkscape:collect="always"
       id="linearGradient4285">
      <stop
         style="stop-color:#ffffff;stop-opacity:1;"
         offset="0"
         id="stop4287" />
      <stop
         style="stop-color:#ffffff;stop-opacity:0;"
         offset="1"
         id="stop4289" />
    </linearGradient>
    <linearGradient
       inkscape:collect="always"
       id="linearGradient4271">
      <stop
         style="stop-color:#ffff00;stop-opacity:1;"
         offset="0"
         id="stop4273" />
      <stop
         style="stop-color:#ffff00;stop-opacity:0;"
         offset="1"
         id="stop4275" />
    </linearGradient>
    <linearGradient
       inkscape:collect="always"
       id="linearGradient4261">
      <stop
         style="stop-color:#ffffff;stop-opacity:1;"
         offset="0"
         id="stop4263" />
      <stop
         style="stop-color:#ffffff;stop-opacity:0;"
         offset="1"
         id="stop4265" />
    </linearGradient>
    <linearGradient
       id="linearGradient3269">
      <stop
         style="stop-color:#00ff00;stop-opacity:1;"
         offset="0"
         id="stop3271" />
      <stop
         style="stop-color:#007f00;stop-opacity:1;"
         offset="1"
         id="stop3273" />
    </linearGradient>
    <linearGradient
       id="linearGradient3226">
      <stop
         style="stop-color:#000000;stop-opacity:1;"
         offset="0"
         id="stop3228" />
      <stop
         style="stop-color:#333333;stop-opacity:1;"
         offset="1"
         id="stop3230" />
    </linearGradient>
    <linearGradient
       id="linearGradient3214">
      <stop
         style="stop-color:#00ff00;stop-opacity:1;"
         offset="0"
         id="stop3216" />
      <stop
         style="stop-color:#007f00;stop-opacity:1;"
         offset="1"
         id="stop3218" />
    </linearGradient>
    <linearGradient
       id="linearGradient5228">
      <stop
         style="stop-color:#cccc99;stop-opacity:0"
         offset="0"
         id="stop5230" />
      <stop
         id="stop5236"
         offset="0.89999998"
         style="stop-color:#cccc99;stop-opacity:0;" />
      <stop
         style="stop-color:#cccc99;stop-opacity:1"
         offset="1"
         id="stop5232" />
    </linearGradient>
    <linearGradient
       id="linearGradient5198">
      <stop
         style="stop-color:#000000;stop-opacity:1;"
         offset="0"
         id="stop5200" />
      <stop
         style="stop-color:#333333;stop-opacity:0.94117647;"
         offset="1"
         id="stop5202" />
    </linearGradient>
    <linearGradient
       id="linearGradient5177">
      <stop
         style="stop-color:#cccc99;stop-opacity:1;"
         offset="0"
         id="stop5179" />
      <stop
         style="stop-color:#cccc99;stop-opacity:0.49803922"
         offset="1"
         id="stop5181" />
    </linearGradient>
    <linearGradient
       id="linearGradient4768">
      <stop
         id="stop4770"
         offset="0"
         style="stop-color:#e8e8e8;stop-opacity:0.90980393;" />
      <stop
         id="stop4772"
         offset="1"
         style="stop-color:#ffffff;stop-opacity:0" />
    </linearGradient>
    <linearGradient
       id="linearGradient3598">
      <stop
         id="stop3600"
         offset="0"
         style="stop-color:#ffffff;stop-opacity:1" />
      <stop
         id="stop3602"
         offset="1"
         style="stop-color:#ffffff;stop-opacity:0" />
    </linearGradient>
    <linearGradient
       id="linearGradient2165">
      <stop
         style="stop-color:#350000;stop-opacity:1;"
         offset="0"
         id="stop2167" />
      <stop
         style="stop-color:#ff3333;stop-opacity:1;"
         offset="1"
         id="stop2169" />
    </linearGradient>
    <linearGradient
       id="linearGradient3196">
      <stop
         style="stop-color:#ffffff;stop-opacity:1;"
         offset="0"
         id="stop3198" />
      <stop
         style="stop-color:#ffffff;stop-opacity:0;"
         offset="1"
         id="stop3200" />
    </linearGradient>
    <linearGradient
       id="linearGradient3160">
      <stop
         style="stop-color:#ffffff;stop-opacity:1;"
         offset="0"
         id="stop3162" />
      <stop
         id="stop3192"
         offset="0.75"
         style="stop-color:#ffffff;stop-opacity:0.24705882;" />
      <stop
         style="stop-color:#ffffff;stop-opacity:1;"
         offset="1"
         id="stop3164" />
    </linearGradient>
    <clipPath
       clipPathUnits="userSpaceOnUse"
       id="clipPath3257">
      <path
         transform="matrix(1,0,0,0.9882639,0,5.8678726e-2)"
         d="M 95 50.534397 A 45 45.534397 0 1 1  5,50.534397 A 45 45.534397 0 1 1  95 50.534397 z"
         sodipodi:ry="45.534397"
         sodipodi:rx="45"
         sodipodi:cy="50.534397"
         sodipodi:cx="50"
         id="path3259"
         style="opacity:1;fill:#000000;fill-opacity:1;stroke:none;stroke-width:1;stroke-linecap:round;stroke-linejoin:miter;stroke-miterlimit:4;stroke-dasharray:none;stroke-opacity:1"
         sodipodi:type="arc" />
    </clipPath>
    <filter
       inkscape:collect="always"
       x="-0.087105347"
       width="1.1742107"
       y="-0.18598169"
       height="1.3719634"
       id="filter4279">
      <feGaussianBlur
         inkscape:collect="always"
         stdDeviation="1.9373093"
         id="feGaussianBlur4281" />
    </filter>
    <filter
       inkscape:collect="always"
       id="filter4303">
      <feGaussianBlur
         inkscape:collect="always"
         stdDeviation="0.5625"
         id="feGaussianBlur4305" />
    </filter>
    <filter
       inkscape:collect="always"
       x="-0.035535272"
       width="1.0710705"
       y="-0.10884558"
       height="1.2176912"
       id="filter3192">
      <feGaussianBlur
         inkscape:collect="always"
         stdDeviation="1.1845091"
         id="feGaussianBlur3194" />
    </filter>
    <linearGradient
       inkscape:collect="always"
       xlink:href="#linearGradient3269"
       id="linearGradient2231"
       gradientUnits="userSpaceOnUse"
       x1="53.971653"
       y1="73.40696"
       x2="49.183048"
       y2="5" />
    <radialGradient
       inkscape:collect="always"
       xlink:href="#linearGradient4271"
       id="radialGradient2233"
       gradientUnits="userSpaceOnUse"
       gradientTransform="matrix(1,0,0,0.4683544,0,41.202533)"
       cx="51.68919"
       cy="77.5"
       fx="51.68919"
       fy="77.5"
       r="26.68919" />
    <linearGradient
       inkscape:collect="always"
       xlink:href="#linearGradient4261"
       id="linearGradient2235"
       gradientUnits="userSpaceOnUse"
       x1="50"
       y1="10"
       x2="50"
       y2="36.117935" />
    <linearGradient
       inkscape:collect="always"
       xlink:href="#linearGradient4285"
       id="linearGradient2237"
       gradientUnits="userSpaceOnUse"
       x1="50"
       y1="100"
       x2="50"
       y2="81.396393" />
    <filter
       inkscape:collect="always"
       x="-0.068571429"
       width="1.1371429"
       y="-0.48"
       height="1.96"
       id="filter3210">
      <feGaussianBlur
         inkscape:collect="always"
         stdDeviation="2"
         id="feGaussianBlur3212" />
    </filter>
  </defs>
  <sodipodi:namedview
     id="base"
     pagecolor="#ffffff"
     bordercolor="#666666"
     borderopacity="1.0"
     gridtolerance="1"
     guidetolerance="10"
     objecttolerance="10"
     inkscape:pageopacity="0.0"
     inkscape:pageshadow="2"
     inkscape:zoom="4.07"
     inkscape:cx="50"
     inkscape:cy="50"
     inkscape:document-units="px"
     inkscape:current-layer="layer1"
     width="100px"
     height="100px"
     showgrid="true"
     inkscape:grid-points="true"
     inkscape:window-width="872"
     inkscape:window-height="622"
     inkscape:window-x="482"
     inkscape:window-y="0"
     showguides="true"
     inkscape:guide-bbox="true" />
  <metadata
     id="metadata7">
    <rdf:RDF>
      <cc:Work
         rdf:about="">
        <dc:format>image/svg+xml</dc:format>
        <dc:type
           rdf:resource="http://purl.org/dc/dcmitype/StillImage" />
      </cc:Work>
    </rdf:RDF>
  </metadata>
  <g
     inkscape:label="Layer 1"
     inkscape:groupmode="layer"
     id="layer1">
    <path
       sodipodi:type="arc"
       style="opacity:0.33300003;fill:#000000;fill-opacity:1;stroke:none;stroke-width:0.5;stroke-linecap:round;stroke-linejoin:miter;stroke-miterlimit:4;stroke-dasharray:none;stroke-opacity:0.49803922;filter:url(#filter3210)"
       id="path2239"
       sodipodi:cx="50"
       sodipodi:cy="90"
       sodipodi:rx="35"
       sodipodi:ry="5"
       d="M 85 90 A 35 5 0 1 1  15,90 A 35 5 0 1 1  85 90 z"
       transform="matrix(1.0714286,0,0,1,-3.5714286,0)" />
    <g
       id="g2221"
       transform="matrix(0.9444444,0,0,0.9444444,2.777778,0.2777779)">
      <path
         transform="matrix(1.0184902,0,0,1.0241856,-9.2450814e-2,-0.1209281)"
         d="M 93.366096 48.937347 A 44.183048 43.937347 0 1 1  5,48.937347 A 44.183048 43.937347 0 1 1  93.366096 48.937347 z"
         sodipodi:ry="43.937347"
         sodipodi:rx="44.183048"
         sodipodi:cy="48.937347"
         sodipodi:cx="49.183048"
         id="path3267"
         style="opacity:1;fill:url(#linearGradient2231);fill-opacity:1;stroke:none;stroke-width:0.5;stroke-linecap:round;stroke-linejoin:miter;stroke-miterlimit:4;stroke-dasharray:none;stroke-opacity:0.49803922"
         sodipodi:type="arc" />
      <path
         transform="matrix(0.9367088,0,0,1,1.5822791,0)"
         d="M 78.37838 77.5 A 26.68919 12.5 0 1 1  25,77.5 A 26.68919 12.5 0 1 1  78.37838 77.5 z"
         sodipodi:ry="12.5"
         sodipodi:rx="26.68919"
         sodipodi:cy="77.5"
         sodipodi:cx="51.68919"
         id="path4269"
         style="opacity:0.75;fill:url(#radialGradient2233);fill-opacity:1;stroke:none;stroke-width:0.5;stroke-linecap:round;stroke-linejoin:miter;stroke-miterlimit:4;stroke-dasharray:none;stroke-opacity:0.49803922;filter:url(#filter4279)"
         sodipodi:type="arc" />
      <g
         style="opacity:0.8"
         id="g3281">
        <path
           style="fill:#000000;fill-opacity:1;stroke:none;stroke-width:0.25;stroke-linecap:round;stroke-linejoin:miter;stroke-miterlimit:4;stroke-dasharray:none;stroke-opacity:1"
           d="M 50,5 C 25.16,5 5,25.16 5,50 C 5,74.84 25.16,95 50,95 C 60.487179,95 70.127342,91.396876 77.78125,85.375 C 78.181257,85.060286 78.579829,84.734064 78.96875,84.40625 C 83.665983,80.447043 87.549643,75.552818 90.3125,70 L 75.59375,70 C 69.643319,77.602179 60.395279,82.5 50,82.5 C 32.059999,82.5 17.5,67.94 17.5,50 C 17.5,32.06 32.060001,17.5 50,17.5 C 60.395278,17.5 69.643319,22.397821 75.59375,30 L 90.3125,30 C 87.549643,24.447182 83.665983,19.552957 78.96875,15.59375 C 78.579829,15.265936 78.181257,14.939714 77.78125,14.625 C 70.127342,8.6031239 60.487179,5 50,5 z M 93.3125,37.75 C 93.477886,38.334017 93.639153,38.906614 93.78125,39.5 C 93.640472,38.911539 93.476165,38.329249 93.3125,37.75 z M 93.8125,39.65625 C 93.958484,40.275603 94.067455,40.902325 94.1875,41.53125 C 94.067925,40.904801 93.957786,40.273219 93.8125,39.65625 z M 94.6875,44.8125 C 94.782981,45.64248 94.856683,46.469338 94.90625,47.3125 C 94.856514,46.471022 94.782921,45.640957 94.6875,44.8125 z M 94.90625,47.3125 C 94.958277,48.197515 95,49.101843 95,50 C 95,49.096018 94.958903,48.203339 94.90625,47.3125 z M 95,50 C 95,50.898157 94.958277,51.802485 94.90625,52.6875 C 94.958903,51.796661 95,50.903982 95,50 z M 94.90625,52.6875 C 94.856683,53.530662 94.782981,54.35752 94.6875,55.1875 C 94.782921,54.359043 94.856514,53.528978 94.90625,52.6875 z M 94.1875,58.46875 C 94.067455,59.097675 93.958484,59.724397 93.8125,60.34375 C 93.957786,59.726781 94.067925,59.095199 94.1875,58.46875 z M 93.78125,60.5 C 93.639153,61.093386 93.477886,61.665983 93.3125,62.25 C 93.476165,61.670751 93.640472,61.088461 93.78125,60.5 z "
           id="path5185" />
        <path
           style="fill:#000000;fill-opacity:1;stroke:none;stroke-width:0.25;stroke-linecap:round;stroke-linejoin:miter;stroke-miterlimit:4;stroke-opacity:1"
           d="M 40,35 L 60,35 C 62.77,35 70,47.23 70,50 L 70,65 C 70,67.77 67.77,70 65,70 L 35,70 C 32.23,70 30,67.77 30,65 L 30,50 C 30,47.23 37.23,35 40,35 z "
           id="rect3142"
           sodipodi:nodetypes="ccccccccc" />
        <path
           style="fill:#ffffff;fill-opacity:1;stroke:#000000;stroke-width:1;stroke-linecap:round;stroke-linejoin:miter;stroke-miterlimit:4;stroke-dasharray:none;stroke-opacity:1"
           d="M 45,30 C 48.9957,30 51.25,30 55,30 C 60.303301,30 60,45 60,45 L 40,45 C 40,45 39.696699,30 45,30 z "
           id="rect3145"
           sodipodi:nodetypes="csccs" />
      </g>
      <path
         transform="matrix(0.75,0,0,1.3400753,12.5,-3.4007528)"
         d="M 90 23.058968 A 40 13.058968 0 1 1  10,23.058968 A 40 13.058968 0 1 1  90 23.058968 z"
         sodipodi:ry="13.058968"
         sodipodi:rx="40"
         sodipodi:cy="23.058968"
         sodipodi:cx="50"
         id="path3286"
         style="opacity:0.6;fill:url(#linearGradient2235);fill-opacity:1;stroke:none;stroke-width:0.5;stroke-linecap:round;stroke-linejoin:miter;stroke-miterlimit:4;stroke-dasharray:none;stroke-opacity:0.49803922;filter:url(#filter3192)"
         sodipodi:type="arc" />
      <path
         transform="matrix(1.5,0,0,1.5,-25,-55)"
         d="M 80 85 A 30 15 0 1 1  20,85 A 30 15 0 1 1  80 85 z"
         sodipodi:ry="15"
         sodipodi:rx="30"
         sodipodi:cy="85"
         sodipodi:cx="50"
         id="path4283"
         style="opacity:0.3333;fill:url(#linearGradient2237);fill-opacity:1;stroke:none;stroke-width:0.5;stroke-linecap:round;stroke-linejoin:miter;stroke-miterlimit:4;stroke-dasharray:none;stroke-opacity:0.49803922;filter:url(#filter4303)"
         sodipodi:type="arc" />
    </g>
  </g>
</svg>
